<svg width="188" height="18" xmlns="http://www.w3.org/2000/svg" xmlns:xlink="http://www.w3.org/1999/xlink" xml:space="preserve" overflow="hidden"><defs><clipPath id="clip0"><rect x="1024" y="436" width="188" height="18"/></clipPath><clipPath id="clip1"><rect x="1024" y="436" width="188" height="18"/></clipPath></defs><g clip-path="url(#clip0)" transform="translate(-1024 -436)"><g clip-path="url(#clip1)"><path d="M27.9552 4.80212C27.9552 4.80212 18.7197 4.37336 13.9776 4.37336 9.2355 4.37336 0 4.80212 0 4.80212L0 0 27.9466 0Z" fill="#0D8FFF" fill-rule="nonzero" fill-opacity="1" transform="matrix(1.07516 0 0 1 1024 436.108)"/><path d="M20.9064 17.7421 27.9552 17.7421 13.9776 4.75924 0.00857521 17.7421 7.0574 17.7421C9.34698 17.7423 11.3821 16.2833 12.1168 14.1148L13.0858 11.2507 14.8694 11.2507 15.8384 14.1148C16.5744 16.2861 18.6137 17.7457 20.9064 17.7421" fill="#EF871C" fill-rule="nonzero" fill-opacity="1" transform="matrix(1.07516 0 0 1 1024 436.108)"/><path d="M60.0436 4.8793C60.4724 7.08313 60.9526 9.46703 61.45 11.3536 61.45 11.3536 61.6386 11.9796 61.8959 12.9829L61.9731 12.9829C62.1617 12.1253 62.2903 11.5422 62.2903 11.5422 62.792 9.34964 63.1274 7.12236 63.2936 4.8793L65.4374 4.8793C65.1915 8.19431 64.5259 11.4647 63.4566 14.6122L60.661 14.6122C60.0015 12.8582 59.5189 11.0426 59.2204 9.19263 59.2204 9.19263 59.0146 8.12073 58.9031 7.10028L58.826 7.10028C58.7145 8.12073 58.5087 9.19263 58.5087 9.19263 58.2102 11.0426 57.7276 12.8582 57.068 14.6122L54.2725 14.6122C53.2032 11.4647 52.5376 8.19431 52.2916 4.8793L54.4612 4.8793C54.6198 7.12161 54.9465 9.34887 55.4387 11.5422 55.4387 11.5422 55.5845 12.1168 55.7732 12.9829L55.8504 12.9829C56.1076 11.9796 56.2963 11.3536 56.2963 11.3536 56.7936 9.46703 57.2567 7.06597 57.7026 4.8793Z" fill="#0D8FFF" fill-rule="nonzero" fill-opacity="1" transform="matrix(1.07516 0 0 1 1024 436.108)"/><path d="M76.2165 10.3932 69.039 10.3932C69.202 11.8938 69.9995 12.9657 71.6116 12.9657 72.6068 13.0366 73.5279 12.4377 73.8669 11.4994L76.0107 11.4994C75.5044 13.4918 73.6552 14.8446 71.603 14.7236 68.5502 14.7236 66.8867 12.597 66.8867 9.67284 66.8867 6.74869 68.6017 4.62204 71.6459 4.62204 74.1074 4.54701 76.1637 6.48159 76.2388 8.94309 76.2431 9.07515 76.2388 9.20635 76.2336 9.33841 76.248 9.68999 76.2424 10.0422 76.2165 10.3932M69.0905 8.76387 74.1842 8.76387C74.1663 7.45639 73.0919 6.41096 71.7844 6.42882 71.784 6.42883 71.7835 6.42883 71.7831 6.42884L71.7033 6.42884C70.342 6.34629 69.1715 7.38284 69.0888 8.74414Z" fill="#0D8FFF" fill-rule="nonzero" fill-opacity="1" transform="matrix(1.07516 0 0 1 1024 436.108)"/><path d="M80.6584 14.5779 78.5489 14.5779 78.5489 4.78497 79.4922 4.78497 80.1439 6.07983 80.2383 6.07983C81.1819 5.14698 82.4617 4.63382 83.7884 4.65634 86.1723 4.65634 87.5272 6.25133 87.5272 8.71241L87.5272 14.5779 85.4177 14.5779 85.4177 8.89249C85.4177 7.37468 84.8088 6.43141 83.231 6.43141 81.915 6.37519 80.7848 7.35836 80.6584 8.66954Z" fill="#0D8FFF" fill-rule="nonzero" fill-opacity="1" transform="matrix(1.07516 0 0 1 1024 436.108)"/><path d="M92.5265 6.59434 92.5265 11.1649C92.5265 12.0224 92.578 12.88 93.6156 12.88 94.1893 12.8968 94.763 12.8652 95.3306 12.7856L95.3306 14.5007C94.6446 14.5521 93.9414 14.595 93.2554 14.595 91.3346 14.595 90.4085 13.4888 90.4085 11.6194L90.4085 6.59434 89.0021 6.59434 89.0021 4.8793 90.4771 4.8793 90.4771 1.69789 92.5694 1.69789 92.5694 4.8793 95.3992 4.8793 95.3992 6.59434Z" fill="#0D8FFF" fill-rule="nonzero" fill-opacity="1" transform="matrix(1.07516 0 0 1 1024 436.108)"/><path d="M105.861 10.3932 98.7178 10.3932C98.8808 11.8938 99.6783 12.9657 101.29 12.9657 102.286 13.0366 103.207 12.4377 103.546 11.4994L105.689 11.4994C105.184 13.4918 103.334 14.8446 101.282 14.7236 98.229 14.7236 96.5655 12.597 96.5655 9.67284 96.5655 6.74869 98.2805 4.62204 101.325 4.62204 103.786 4.54701 105.842 6.48159 105.918 8.94309 105.922 9.07515 105.918 9.20635 105.912 9.33841 105.915 9.69068 105.898 10.0428 105.861 10.3932M98.735 8.76387 103.786 8.76387C103.768 7.45639 102.693 6.41096 101.386 6.42882 101.386 6.42883 101.386 6.42883 101.385 6.42884L101.305 6.42884C99.9535 6.37193 98.8079 7.41301 98.735 8.76387Z" fill="#0D8FFF" fill-rule="nonzero" fill-opacity="1" transform="matrix(1.07516 0 0 1 1024 436.108)"/><path d="M119.633 1.65502C122.257 5.41096 123.629 10.0759 124.349 14.5693L122.111 14.5693C121.905 13.4031 121.682 12.254 121.391 11.1392L115.388 11.1392C115.088 12.2711 114.874 13.4116 114.668 14.5693L112.43 14.5693C113.15 10.0759 114.522 5.41096 117.146 1.65502ZM120.85 9.22693C120.26 7.27327 119.439 5.39652 118.407 3.63589L118.329 3.63589C117.292 5.39624 116.466 7.2729 115.868 9.22693Z" fill="#0D8FFF" fill-rule="nonzero" fill-opacity="1" transform="matrix(1.07516 0 0 1 1024 436.108)"/><path d="M127.282 3.39578C126.644 3.34841 126.165 2.79314 126.213 2.15555 126.261 1.51795 126.815 1.03947 127.453 1.08684 128.06 1.13189 128.528 1.63855 128.525 2.24671 128.512 2.8954 127.976 3.41064 127.327 3.39755 127.326 3.39753 127.326 3.39752 127.325 3.3975L127.279 3.3975M126.225 14.5453 128.334 14.5453 128.334 4.8793 126.227 4.8793Z" fill="#0D8FFF" fill-rule="nonzero" fill-opacity="1" transform="matrix(1.07516 0 0 1 1024 436.108)"/><path d="M136.989 4.8793 136.989 6.87732C136.427 6.73704 135.853 6.65656 135.274 6.63721 133.945 6.63721 133.259 7.49473 133.259 9.08115L133.259 14.595 131.149 14.595 131.149 4.78497 132.093 4.78497 132.779 6.13985 132.856 6.13985C133.445 5.20931 134.473 4.64852 135.574 4.65634 136.054 4.65819 136.531 4.73337 136.989 4.8793" fill="#0D8FFF" fill-rule="nonzero" fill-opacity="1" transform="matrix(1.07516 0 0 1 1024 436.108)"/><path d="M139.725 4.78497 140.445 6.2256 140.522 6.2256C141.273 5.19471 142.489 4.60617 143.763 4.65634 146.688 4.65634 147.982 7.06597 147.982 9.70714 147.982 12.3483 146.765 14.7579 143.858 14.7579 142.75 14.7894 141.685 14.3277 140.951 13.4974L140.874 13.4974 140.874 17.785 138.781 17.785 138.781 4.78497ZM143.369 12.9829C145.256 12.9829 145.864 11.3364 145.864 9.70714 145.864 8.07785 145.256 6.43141 143.369 6.43141 141.482 6.43141 140.874 8.07785 140.874 9.70714 140.874 11.3364 141.5 12.9829 143.369 12.9829" fill="#0D8FFF" fill-rule="nonzero" fill-opacity="1" transform="matrix(1.07516 0 0 1 1024 436.108)"/><path d="M159.182 9.70714C159.182 12.6313 157.467 14.7579 154.465 14.7579 151.464 14.7579 149.749 12.6313 149.749 9.70714 149.749 6.78299 151.464 4.65634 154.465 4.65634 157.467 4.65634 159.182 6.78299 159.182 9.70714M157.089 9.70714C157.089 7.9921 156.386 6.43141 154.465 6.43141 152.544 6.43141 151.893 8.00067 151.893 9.70714 151.893 11.4136 152.579 12.9829 154.465 12.9829 156.352 12.9829 157.098 11.4136 157.098 9.70714Z" fill="#0D8FFF" fill-rule="nonzero" fill-opacity="1" transform="matrix(1.07516 0 0 1 1024 436.108)"/><path d="M167.294 4.8793 167.294 6.87732C166.732 6.73704 166.158 6.65656 165.579 6.63721 164.25 6.63721 163.564 7.49473 163.564 9.08115L163.564 14.595 161.454 14.595 161.454 4.78497 162.397 4.78497 163.083 6.13985 163.161 6.13985C163.75 5.20931 164.778 4.64852 165.879 4.65634 166.359 4.65819 166.836 4.73337 167.294 4.8793" fill="#0D8FFF" fill-rule="nonzero" fill-opacity="1" transform="matrix(1.07516 0 0 1 1024 436.108)"/><path d="M172.053 6.59434 172.053 11.1649C172.053 12.0224 172.104 12.88 173.142 12.88 173.716 12.8968 174.289 12.8652 174.857 12.7856L174.857 14.5007C174.171 14.5521 173.468 14.595 172.782 14.595 170.861 14.595 169.935 13.4888 169.935 11.6194L169.935 6.59434 168.511 6.59434 168.511 4.8793 169.918 4.8793 169.918 1.69789 172.01 1.69789 172.01 4.8793 174.84 4.8793 174.84 6.59434Z" fill="#0D8FFF" fill-rule="nonzero" fill-opacity="1" transform="matrix(1.07516 0 0 1 1024 436.108)"/><path d="M53.0377 1.52639 42.0014 1.52639 42.0014 3.55014C42.0014 3.55014 44.291 3.43008 46.3833 3.39578L46.3833 14.5436 48.6386 14.5436 48.6386 3.39578C50.731 3.39578 53.0205 3.55014 53.0205 3.55014Z" fill="#0D8FFF" fill-rule="nonzero" fill-opacity="1" transform="matrix(1.07516 0 0 1 1024 436.108)"/></g></g></svg>